<svg width="256" height="256" viewBox="0 0 256 256" fill="none" xmlns="http://www.w3.org/2000/svg">
<rect width="256" height="256" fill="#0F111A"/>
<path d="M195.206 63.7104C195.411 63.4476 182.529 74.2716 166.579 87.7639C148.247 103.272 137.627 112.418 137.708 112.628C137.778 112.81 139.603 115.022 141.766 117.545C143.929 120.068 145.721 122.14 145.747 122.15C145.793 122.168 194.451 64.6746 195.206 63.7104ZM109.877 140.021C109.764 140.09 99.2125 152.513 86.4275 167.628C73.6424 182.742 62.5724 195.809 61.8268 196.666C61.0811 197.524 60.5328 198.225 60.609 198.225C60.794 198.225 119.749 148.348 119.81 148.14C119.886 147.88 110.102 139.882 109.877 140.021Z" fill="white"/>
<g filter="url(#filter0_d)">
<path d="M141.667 49.0094C141.622 49.0539 142.68 49.518 144.017 50.04C147.826 51.5271 154.846 55.1828 158.612 57.6416C164.786 61.6717 168.955 65.049 173.882 70.0103C175.665 71.8059 177.236 73.2903 177.374 73.3085C177.511 73.3266 178.18 72.8424 178.86 72.2331L180.096 71.1246L179.234 70.2246C177.935 68.8684 173.408 64.945 171.014 63.0983C164.17 57.8196 156.183 53.4703 148.568 50.8777C146.24 50.0849 141.795 48.8815 141.667 49.0094ZM78.6025 70.9454C68.3342 72.2468 59.8725 80.0016 52.41 96.8964C48.6897 105.319 46.3563 113.951 45.2905 123.235C44.9005 126.632 44.904 136.34 45.2963 139.693C46.8876 153.291 51.1218 165.031 58.4715 176.224C60.8034 179.776 62.1413 181.579 64.3479 184.145L65.7995 185.834L67.405 183.945C68.2879 182.906 69.0105 181.973 69.0105 181.87C69.0105 181.767 68.3341 180.377 67.5063 178.782C64.6366 173.253 62.7458 168.125 61.1486 161.537C58.0308 148.678 58.1432 133.181 61.4234 123.697C65.4148 112.156 72.7907 107.782 81.3829 111.862C83.7827 113.001 85.4201 114.148 89.4611 117.523C91.3128 119.07 105.341 130.774 120.636 143.533C135.93 156.291 151.81 169.543 155.925 172.981C165.764 181.2 169.677 184.016 174.971 186.682C177.01 187.709 180.535 188.954 182.736 189.427C184.685 189.845 187.66 189.906 189.499 189.565C191.597 189.176 194.388 187.679 195.967 186.094C197.733 184.321 199.769 181.021 202.21 175.975C207.599 164.836 209.98 154.24 210 141.314C210.009 134.895 209.652 130.868 208.537 124.821C205.778 109.866 199.047 94.6577 189.635 82.1121C188.652 80.8016 187.762 79.6157 187.657 79.4762C187.475 79.2334 186.856 79.8416 185.335 81.7536L184.711 82.5368L186.307 84.9953C193.821 96.5745 198.17 108.176 199.849 121.116C200.367 125.11 200.439 134.386 199.981 138.321C199.057 146.266 196.735 155.288 194.329 160.291C192.445 164.207 189.713 166.777 186.786 167.386C183.517 168.065 179.735 166.506 175.912 162.903C175.246 162.275 160.515 145.356 143.175 125.306C119.251 97.643 118.011 96 108.721 86.1447C99.4316 76.2894 90.0066 69.5 78.6025 70.9454ZM75.4929 191.186C75.412 191.186 74.8467 191.616 74.2361 192.142L73.1255 193.099L74.3725 194.235C76.2115 195.911 81.3377 199.683 84.2744 201.521C85.6866 202.404 88.5258 204.001 90.5833 205.068C94.0617 206.873 95.2285 207.41 94.11 206.693C86.0354 201.519 81.9929 198.262 77.6653 193.442C76.5517 192.201 75.5737 191.186 75.4929 191.186Z" fill="white"/>
</g>
<defs>
<filter id="filter0_d" x="33.5148" y="49" width="187.97" height="180.97" filterUnits="userSpaceOnUse" color-interpolation-filters="sRGB">
<feFlood flood-opacity="0" result="BackgroundImageFix"/>
<feColorMatrix in="SourceAlpha" type="matrix" values="0 0 0 0 0 0 0 0 0 0 0 0 0 0 0 0 0 0 127 0"/>
<feOffset dy="11.4852"/>
<feGaussianBlur stdDeviation="5.7426"/>
<feColorMatrix type="matrix" values="0 0 0 0 0 0 0 0 0 0 0 0 0 0 0 0 0 0 0.5 0"/>
<feBlend mode="normal" in2="BackgroundImageFix" result="effect1_dropShadow"/>
<feBlend mode="normal" in="SourceGraphic" in2="effect1_dropShadow" result="shape"/>
</filter>
</defs>
</svg>
