<svg width="479" height="97" fill="none" xmlns="http://www.w3.org/2000/svg"><path d="M474.21 35.33c-99.39-5.7-281.3 16.38-458.04 41.9C177.84 63.73 268.39 57.76 429.3 57.49c9.12-10.87 20.36-13.77 44.9-22.15z" fill="url(#paint0_linear)" fill-opacity=".5"/><path d="M15.32 59.04c-.03-.07.03-.26.18-.58.14-.34.3-.74.46-1.2.18-.5.34-1.03.5-1.62a7.88 7.88 0 00.12-3.73 4.1 4.1 0 00-.94-1.72c-.28-.28-.66-.4-1.16-.39-.48 0-1.02.11-1.62.37a8.4 8.4 0 00-1.83 1.02c-.61.43-1.17.93-1.67 1.5-.5.54-.93 1.14-1.27 1.8-.32.65-.48 1.3-.47 1.96 0 .52.05 1 .16 1.45a8 8 0 001.06 2.2l.56.81c.23.33.57.7 1.03 1.08.46.38.97.83 1.51 1.33a19 19 0 011.65 1.66 10.8 10.8 0 012.53 4.92 15.8 15.8 0 01-.64 8.17 11.34 11.34 0 01-1.71 3.16c-.63.8-1.3 1.4-1.98 1.79a8.3 8.3 0 01-1.74.82c-.36.11-.8.21-1.32.3-.5.13-1.03.16-1.6.11a5.69 5.69 0 01-1.73-.37 4.1 4.1 0 01-1.63-1.06 8.58 8.58 0 01-2.2-4.02 5.12 5.12 0 01-.03-2.51 4.77 4.77 0 011.22-1.16c.23-.17.48-.33.74-.48.32-.13.63-.24.95-.34a4.8 4.8 0 011.75-.12c-.33.45-.56.87-.67 1.26-.09.2-.15.39-.18.54-.06.48-.05 1.05.03 1.69.11.67.3 1.29.58 1.86.3.6.7 1.1 1.18 1.48.49.4 1.1.6 1.85.55 1.82-.1 3.24-1.66 4.25-4.65.35-.93.48-1.86.4-2.78a10.33 10.33 0 00-1.7-4.88c-.44-.72-.89-1.32-1.33-1.8-.44-.5-.98-1-1.6-1.56-.6-.57-1.2-1.2-1.82-1.86a17.23 17.23 0 01-1.7-2.22 9.2 9.2 0 01-1.1-2.69 7.44 7.44 0 01.05-3.83 10.54 10.54 0 013.98-5.57 8.7 8.7 0 012.4-1.26c3.94-1.15 6.62-.7 8.05 1.32.6.78.96 1.62 1.09 2.54.13.91.14 1.77.03 2.58a8.9 8.9 0 01-.8 2.93c-.13.16-.35.34-.66.55a6.2 6.2 0 01-2.11.74c-.17.02-.36.02-.56.02-.2-.01-.38-.05-.54-.1zm16.45 9.83a13 13 0 01-.77 2.74c-.35.85-.8 1.6-1.35 2.26a6.06 6.06 0 01-1.85 1.55c-.7.4-1.47.65-2.34.73a3.96 3.96 0 01-2.48-.46 4.11 4.11 0 01-1.45-1.49 6.51 6.51 0 01-.67-2.08 22.6 22.6 0 01-.3-2.15 12.14 12.14 0 01.93-5.23c.27-.63.6-1.2.98-1.74a3.21 3.21 0 011.58-2.06c.4-.26.84-.46 1.3-.6.46-.16.92-.27 1.37-.3a154.96 154.96 0 00.42.08 4.82 4.82 0 012.73 1.15 5.56 5.56 0 012.04 4.02 9.32 9.32 0 01.01 1.46c.56-.27 1.13-.6 1.72-.97a23.52 23.52 0 003.24-2.43c.47-.41.84-.78 1.11-1.1.23-.25.43-.4.6-.44.17-.04.3 0 .39.12.08.12.11.3.08.52-.03.23-.14.49-.34.78a26.26 26.26 0 01-4.7 4.32c-.77.57-1.52 1-2.25 1.32zm-6.8-5.11c-.05.23-.07.47-.04.71.03.4.1.82.18 1.27.09.41.25.79.48 1.12.22.33.56.6 1 .81.47.19 1.1.25 1.86.18l.37-.03.37-.11a30.5 30.5 0 00.16-1.6c.01-.47-.03-.96-.13-1.45-.09-.49-.23-.93-.41-1.31a2.58 2.58 0 00-.61-.96.9.9 0 00-.78-.35c-.47.04-.92.22-1.35.53-.4.29-.76.68-1.1 1.19zm-1.8 6.77c.03.44.1.89.19 1.33.08.42.22.8.4 1.13.17.31.4.57.66.77.27.18.6.25 1 .21.45-.04.85-.17 1.2-.4a4.57 4.57 0 001.62-2.13c.2-.47.38-.95.51-1.44l-.51.12-.52.05a3.88 3.88 0 01-2.54-.6 5.8 5.8 0 01-1.75-2.03c-.1.53-.18 1.05-.24 1.56-.06.5-.07.98-.03 1.43zm23.63-2.97c-.17.96-.43 1.88-.78 2.73-.35.86-.8 1.61-1.34 2.26a6.06 6.06 0 01-1.86 1.55c-.69.41-1.47.66-2.34.73a3.97 3.97 0 01-2.48-.45 4.11 4.11 0 01-1.44-1.5 6.51 6.51 0 01-.67-2.08c-.15-.76-.25-1.48-.3-2.15a12.15 12.15 0 01.93-5.23c.27-.62.6-1.2.97-1.73a3.22 3.22 0 011.59-2.06c.4-.26.83-.46 1.3-.6.46-.17.91-.27 1.36-.3.07-.02.14 0 .19.01l.23.06a4.82 4.82 0 012.73 1.15 5.56 5.56 0 012.04 4.03 9.28 9.28 0 01.02 1.46c.55-.27 1.12-.6 1.72-.98a23.54 23.54 0 003.24-2.42c.46-.42.83-.79 1.1-1.11.23-.25.43-.39.6-.43.18-.04.3 0 .4.12.08.11.1.29.07.51-.03.23-.14.5-.34.79a26.26 26.26 0 01-4.7 4.32c-.77.56-1.52 1-2.24 1.32zM40 62.44c-.06.23-.07.47-.05.72.03.4.1.82.19 1.26.08.42.24.8.47 1.12.23.33.56.6 1 .82.48.18 1.1.24 1.87.17l.37-.03.36-.1a30.1 30.1 0 00.17-1.6c0-.47-.04-.96-.13-1.45-.1-.5-.23-.93-.42-1.32a2.57 2.57 0 00-.6-.96.9.9 0 00-.79-.34c-.47.04-.92.21-1.34.53-.4.28-.77.68-1.1 1.18zm-1.81 6.77c.04.45.1.9.19 1.34.09.42.22.8.4 1.13.18.3.4.56.67.77.26.17.6.24 1 .2.44-.03.84-.17 1.2-.4a4.56 4.56 0 001.61-2.13c.21-.47.38-.95.52-1.43l-.52.12c-.15 0-.32.02-.52.04a3.88 3.88 0 01-2.53-.6 5.8 5.8 0 01-1.76-2.03c-.1.54-.18 1.06-.24 1.56-.05.5-.06.98-.02 1.43zm24.27 3.89a3.15 3.15 0 01-1.52-.2 2.6 2.6 0 01-1.04-.74 2.83 2.83 0 01-.6-1.15 3.84 3.84 0 01-.05-1.5c.04-.35.13-.82.25-1.41l.36-1.95c.14-.71.25-1.41.34-2.1.11-.7.17-1.34.17-1.89 0-.57-.06-1.03-.2-1.37-.12-.36-.35-.53-.68-.5-.4.03-.8.2-1.19.51-.4.29-.8.68-1.21 1.16-.39.49-.78 1.05-1.17 1.68-.37.61-.74 1.24-1.11 1.9l-.37 2.29a1041.21 1041.21 0 00-.6 4.22c-.06.26-.26.52-.6.8-.36.26-.74.48-1.15.67-.41.18-.77.29-1.06.32-.33.02-.47-.08-.44-.3 0-.15.07-.5.17-1.03.08-.54.19-1.16.32-1.87a290.75 290.75 0 01.73-4.65 671.7 671.7 0 00.5-4.06l.45-2.67a2.92 2.92 0 011.07-.66c.19-.09.4-.16.62-.2.2-.02.4-.02.6-.02.17.01.35.05.53.1.2.04.39.11.55.22a23.63 23.63 0 00-.4 1.76c-.08.41-.17.83-.28 1.27.29-.48.6-.96.97-1.44.38-.5.79-.97 1.23-1.38.46-.42.96-.76 1.48-1.03.53-.3 1.08-.47 1.65-.52.47-.05.9.05 1.3.3.4.24.72.6.96 1.08.27.45.44 1 .52 1.68.11.66.09 1.4-.06 2.22l-.27 1.68-.32 1.9c-.12.71-.27 1.5-.47 2.37-.1.56-.12 1.04-.06 1.44.08.39.35.57.8.53.44-.04.98-.36 1.6-.97.65-.6 1.29-1.33 1.91-2.16a35.94 35.94 0 003.01-4.62c.2-.34.4-.57.59-.69.19-.12.33-.14.44-.07.13.06.2.23.23.5.02.25-.05.58-.21 1-.14.36-.38.84-.7 1.45-.3.6-.67 1.25-1.1 1.93-.45.7-.93 1.4-1.44 2.12-.51.7-1.06 1.35-1.63 1.95-.58.57-1.16 1.05-1.75 1.43-.57.4-1.13.62-1.67.67zm22.69-10.74c-.65 1.16-1.4 2.3-2.26 3.43-.85 1.1-1.78 2.1-2.78 3.02-.97.89-2 1.63-3.07 2.22-1.05.6-2.1.94-3.14 1.03a4.64 4.64 0 01-1.83-.25 4.9 4.9 0 01-1.82-1.05 6.14 6.14 0 01-1.45-2.01 7.53 7.53 0 01-.54-3.15c.01-1.02.23-2.12.65-3.28a15.6 15.6 0 011.7-3.3 11.8 11.8 0 012.45-2.59 5.6 5.6 0 012.9-1.2c.94-.07 1.65.1 2.11.54.46.43.7 1 .71 1.7 0 .78-.17 1.5-.48 2.19-.3.67-.67 1.3-1.12 1.86-.45.56-.94 1.08-1.48 1.56-.5.47-1 .9-1.46 1.29a156.07 156.07 0 00-2.7 2.22c.08.62.24 1.14.47 1.54.24.4.52.73.84.98.32.22.67.38 1.06.47.4.07.8.08 1.2.05.85-.08 1.7-.42 2.58-1.02a19.3 19.3 0 002.52-2.17 49.44 49.44 0 003.97-4.9c.15-.2.31-.34.49-.38.19-.06.34-.05.45.04.13.06.2.2.22.43.02.2-.04.44-.2.73zm-10.05-4.9c-.3.02-.65.2-1.04.54-.37.33-.73.8-1.08 1.4a11.71 11.71 0 00-1.48 4.98 28.68 28.68 0 001.89-1.63c1-.91 1.67-1.7 2.04-2.36.37-.65.56-1.2.57-1.66 0-.48-.07-.8-.24-1a.72.72 0 00-.66-.27zm6.6 12.83c-.14.29-.31.48-.5.57-.22.12-.4.15-.56.09-.18-.04-.3-.15-.37-.35-.07-.2-.04-.45.08-.76l.44-1.05c.2-.54.46-1.2.77-1.94.28-.78.6-1.6.94-2.5l.98-2.56a117.36 117.36 0 011.5-3.55l-.61-.47c-.11-.11-.2-.36-.29-.72-.08-.32-.04-.75.11-1.3a7.16 7.16 0 011.63-2.91c.36-.39.73-.6 1.1-.63.7-.06 1.2.12 1.52.55.34.42.55.86.64 1.33.08.32.09.73.03 1.24-.05.5-.2.97-.44 1.39l.32.16c.12.04.33.05.6.02.4-.03.67-.08.81-.14.17-.07.43-.12.78-.15.42-.03.78.05 1.07.25.3.17.54.41.74.72.2.28.36.6.46.97.13.34.22.66.27.96.13.61.03 1.27-.31 1.98-.34.7-.76 1.48-1.26 2.33-.3.52-.6 1.11-.9 1.76a2.9 2.9 0 00-.3 1.72c.08.32.19.57.33.76.14.19.5.26 1.07.2.42-.03.87-.22 1.34-.56.5-.37.98-.81 1.46-1.33a24.46 24.46 0 002.77-3.59c.4-.6.72-1.15.98-1.62l.63-1.03c.1-.21.25-.36.44-.46.2-.09.37-.1.53-.04.15.06.25.2.3.42.07.22 0 .53-.19.92-.12.26-.35.68-.67 1.26-.3.58-.69 1.23-1.15 1.94a36.5 36.5 0 01-1.5 2.24c-.56.75-1.16 1.45-1.8 2.1-.62.64-1.26 1.17-1.93 1.6a4 4 0 01-1.89.73 3.13 3.13 0 01-2.75-1.03c-.29-.35-.5-.73-.67-1.15a3.4 3.4 0 01-.08-2.17 19.52 19.52 0 01.9-2.22c.2-.39.36-.77.5-1.13.36-.76.64-1.4.85-1.92.23-.54.32-.99.3-1.34a1.19 1.19 0 00-.2-.58c-.12-.17-.3-.24-.51-.22-.15.01-.26.04-.34.07l-.18.01c-.05 0-.14.03-.26.06l-.49.05c-.32.03-.6 0-.83-.08a3.92 3.92 0 00-.65-.17l-.58 1.18-1.05 2.12-1.24 2.55a318.4 318.4 0 01-2.16 4.47 25 25 0 01-.52.95zm38.16-9.13a13 13 0 01-.77 2.74c-.35.86-.8 1.61-1.34 2.26a6.05 6.05 0 01-1.86 1.55c-.69.41-1.47.66-2.34.73a3.96 3.96 0 01-2.48-.46 4.12 4.12 0 01-1.45-1.49 6.5 6.5 0 01-.67-2.08c-.14-.76-.24-1.48-.3-2.15a12.05 12.05 0 01.93-5.23c.28-.62.6-1.2.98-1.74a3.21 3.21 0 011.59-2.05c.4-.26.83-.46 1.3-.6.46-.17.91-.27 1.36-.31.07 0 .14 0 .19.02l.23.05a4.82 4.82 0 012.73 1.15 5.57 5.57 0 012.04 4.03 8.92 8.92 0 01.02 1.47c.55-.28 1.12-.6 1.72-.98a23.34 23.34 0 003.24-2.42c.46-.42.83-.79 1.1-1.11.23-.25.43-.4.6-.43.18-.04.3 0 .39.11.09.12.11.3.08.52-.03.23-.14.5-.34.78a26.3 26.3 0 01-4.7 4.32c-.77.57-1.52 1.01-2.25 1.32zm-6.8-5.11c-.05.23-.06.47-.04.72.03.4.1.82.18 1.26.09.42.25.8.48 1.12.23.33.56.6 1 .82.47.18 1.1.24 1.86.17l.38-.03.36-.1a31.43 31.43 0 00.16-1.6c.01-.48-.03-.96-.12-1.45-.1-.5-.23-.94-.42-1.32a2.56 2.56 0 00-.6-.96.9.9 0 00-.79-.35c-.47.04-.92.22-1.34.53-.4.29-.77.68-1.1 1.19zm-1.8 6.77c.03.45.1.9.19 1.34.08.41.22.79.4 1.12.18.31.4.57.67.77.26.18.6.25 1 .22.44-.04.84-.18 1.2-.41a4.57 4.57 0 001.61-2.13c.21-.47.38-.95.52-1.44l-.52.12-.52.05a3.88 3.88 0 01-2.53-.6 5.8 5.8 0 01-1.76-2.03c-.1.53-.18 1.05-.24 1.56-.06.5-.06.98-.02 1.43zm11.68 3.86c-.15.29-.32.48-.52.57-.21.12-.4.15-.55.09-.18-.04-.3-.15-.37-.35-.07-.19-.04-.44.08-.75l.44-1.06c.2-.54.46-1.19.77-1.94.28-.78.6-1.6.94-2.49l.98-2.56a115.12 115.12 0 011.5-3.55c-.3-.23-.5-.38-.61-.48-.11-.11-.2-.35-.29-.72-.08-.32-.04-.75.11-1.29a7.18 7.18 0 011.63-2.92c.36-.38.73-.6 1.1-.62.7-.06 1.2.12 1.52.54.34.42.55.87.64 1.33.08.32.1.74.03 1.24-.05.5-.2.97-.44 1.4l.32.15c.13.04.33.05.6.02.4-.03.67-.08.81-.14.17-.07.43-.11.78-.14.42-.04.78.04 1.07.24.3.17.54.42.74.72.2.29.36.61.46.98.13.34.22.65.28.95.12.62.02 1.28-.32 1.98s-.76 1.48-1.26 2.33c-.3.53-.6 1.12-.9 1.77a2.9 2.9 0 00-.3 1.71c.08.32.19.58.33.76.14.2.5.26 1.07.21.42-.04.87-.23 1.34-.57.5-.37.98-.8 1.46-1.33a24.57 24.57 0 002.77-3.58c.4-.61.72-1.16.98-1.63l.63-1.03c.1-.21.25-.36.45-.45.19-.1.36-.11.52-.05.15.06.25.2.3.43.07.22 0 .52-.19.91-.12.27-.35.69-.67 1.27-.3.57-.68 1.22-1.15 1.94a36.9 36.9 0 01-1.5 2.23c-.55.75-1.16 1.45-1.8 2.11-.62.63-1.26 1.16-1.93 1.6a4 4 0 01-1.89.73 3.13 3.13 0 01-2.75-1.04c-.28-.35-.5-.73-.67-1.14a3.37 3.37 0 01-.08-2.17 18.74 18.74 0 01.9-2.22c.2-.4.36-.78.5-1.14.36-.76.64-1.4.85-1.91.23-.55.33-1 .3-1.34a1.18 1.18 0 00-.2-.59c-.12-.16-.29-.24-.51-.22-.15.02-.26.04-.34.07l-.18.02c-.05 0-.14.02-.26.06l-.48.04c-.33.03-.6 0-.84-.08a3.94 3.94 0 00-.65-.17l-.57 1.18-1.06 2.12c-.38.81-.8 1.66-1.24 2.55a321.84 321.84 0 01-2.16 4.47l-.52.95zm27.03-2.78c.69-4.69 1.24-8.46 1.64-11.3l.97-6.5.5-3.7c.04-.47.06-.94.07-1.39.01-.4 0-.81-.03-1.24-.04-.42-.11-.8-.22-1.14.2-.14.4-.26.61-.36.24-.1.47-.17.7-.24.26-.1.53-.19.8-.26.27-.08.51-.12.74-.14.2-.02.38-.01.56.02.18.01.3.08.36.2.16.1.24.35.25.73.03.37.04.76.03 1.16l-.2 1.56c-.21 1.1-.49 2.67-.83 4.73l-1.22 7.17-1.85 11.43c-.11.13-.26.23-.43.3-.17.06-.32.1-.47.11-.18.02-.36.02-.57.02-.17-.04-.35-.1-.54-.18a2.23 2.23 0 01-.48-.37 1.4 1.4 0 01-.4-.6zm27.44-9.27c-.3.53-.7 1.19-1.18 1.98l-1.53 2.35c-.5.77-1.02 1.5-1.53 2.16a8.3 8.3 0 01-1.27 1.39 4.52 4.52 0 01-1.81.72c-.33.06-.64.06-.95.01-.3-.02-.57-.1-.8-.23a1.96 1.96 0 01-.63-.7c-.15-.26-.3-.6-.47-1.05-.14-.43-.22-.99-.26-1.66a8.08 8.08 0 01-1.77 2.48 9.2 9.2 0 01-1.95 1.34c-.72.33-1.45.56-2.2.68-.34.03-.72-.06-1.15-.28a2.68 2.68 0 01-1.1-1 5.35 5.35 0 01-.69-1.92c-.15-.82-.13-1.8.04-2.94a14.2 14.2 0 011.28-4.28c.66-1.3 1.4-2.44 2.22-3.38.82-.98 1.64-1.73 2.47-2.25a4.2 4.2 0 012.11-.78c.69.06 1.25.21 1.7.45.37.22.62.57.76 1.06.17.46.03 1.11-.43 1.95a9.08 9.08 0 011.4-.3c.15-.02.25-.02.3 0 .03.05.06.16.07.33.02.15 0 .44-.03.87l-.19 1.75a281.22 281.22 0 01-.5 4.06l-.06.64-.1.95c-.01.23 0 .48.02.75.04.25.12.48.21.7.1.21.22.39.38.53.19.1.43.15.73.12.25-.02.56-.2.93-.53.37-.36.76-.8 1.16-1.3a49.7 49.7 0 002.47-3.57l1-1.55.66-1c.18-.24.36-.38.56-.42.2-.07.35-.03.46.11.11.14.14.36.1.67-.03.3-.17.66-.44 1.09zm-10.78 2.6l.29-1.8a35.88 35.88 0 00.4-3.53c.04-.43.01-.62-.08-.59l-.4.15a2 2 0 01-.48.15c-.2.04-.4.1-.59.17a3 3 0 00.24-1.64.9.9 0 00-.19-.4c-.3-.2-.76.03-1.4.69-.63.63-1.31 1.77-2.07 3.41-.32.68-.56 1.4-.71 2.17-.16.74-.27 1.44-.3 2.1-.03.64.01 1.22.1 1.7.1.48.22.78.38.91.3.25.62.36.97.33.35-.05.69-.18 1.02-.39.35-.23.7-.5 1.01-.84.35-.33.65-.67.9-1.01a6.6 6.6 0 00.9-1.59zm21.86-5.6c.08-.16.2-.26.35-.3.17-.06.3-.06.41 0 .1.07.17.2.18.37.04.17 0 .41-.12.72a34.48 34.48 0 01-3.97 6.55 19.95 19.95 0 01-2.4 2.58c-.8.69-1.48 1.06-2.05 1.11a4 4 0 01-2.1-.3 4.06 4.06 0 01-1.4-1.08 4.89 4.89 0 01-1.02-3.03c-.01-.4.01-1.12.07-2.15.06-1.05.16-2.27.29-3.63a138.5 138.5 0 011.05-9.03l-1.26.26a9.98 9.98 0 01-3.4.1 9.46 9.46 0 01-1.66-.41c-.2-.08-.3-.21-.3-.39.01-.2.07-.4.18-.58.1-.2.26-.38.44-.52.16-.17.32-.26.47-.27l1.54.02a21.54 21.54 0 004.41-.69c.22-1.22.44-2.28.66-3.18.25-.92.48-1.57.7-1.93.06-.14.21-.25.45-.35.27-.12.55-.2.85-.26.29-.07.58-.1.85-.07.28 0 .48.07.62.2.14.2.24.7.28 1.52.05.82 0 1.88-.13 3.17 1.04-.1 1.97-.11 2.77-.06a16.16 16.16 0 013.54.48l.8.2c.18.03.28.15.3.35.04.2.02.4-.06.64-.05.2-.18.4-.36.56a.8.8 0 01-.66.2c-.25 0-.54-.02-.87-.07a8.7 8.7 0 00-1.13-.09l-1.55-.01c-.6 0-1.3.04-2.1.1l-.5.09-.57.05-.2 1.22c-.03.38-.11.78-.22 1.22a108.94 108.94 0 01-1.87 6.96c-.41 1.37-.87 2.82-1.39 4.37-.05 1.08.03 1.9.25 2.46.25.52.52.9.82 1.13.34.24.76.36 1.23.34.38.02.81-.15 1.31-.5.52-.36 1.04-.83 1.57-1.4a27.9 27.9 0 001.56-1.87 35.3 35.3 0 001.48-1.97 77.22 77.22 0 001.86-2.83zm14.8.4c-.65 1.15-1.4 2.3-2.26 3.42a24.3 24.3 0 01-2.78 3.03c-.97.88-2 1.62-3.07 2.22-1.05.6-2.1.93-3.14 1.02a4.64 4.64 0 01-1.83-.25 4.89 4.89 0 01-1.82-1.04 6.13 6.13 0 01-1.45-2.02 7.53 7.53 0 01-.54-3.14c.01-1.03.23-2.13.65-3.29a15.6 15.6 0 011.7-3.3 11.8 11.8 0 012.45-2.58 5.6 5.6 0 012.9-1.2c.94-.08 1.65.1 2.11.53.46.44.7 1 .71 1.7 0 .78-.17 1.51-.48 2.19-.3.68-.67 1.3-1.12 1.86-.45.57-.94 1.09-1.48 1.56-.5.47-1 .9-1.46 1.3a164.03 164.03 0 00-2.7 2.22c.08.62.24 1.13.47 1.54.24.4.52.73.84.97.32.23.67.38 1.06.47.4.07.8.08 1.2.05a5.4 5.4 0 002.58-1.01c.87-.63 1.71-1.36 2.51-2.18.83-.85 1.58-1.71 2.26-2.6.7-.89 1.27-1.65 1.71-2.3.16-.2.32-.33.5-.37.19-.07.34-.06.45.03.13.07.2.21.22.43.02.2-.04.45-.2.74zm-10.05-4.91c-.3.03-.65.2-1.04.54-.37.33-.73.8-1.08 1.41a11.7 11.7 0 00-1.48 4.98 28.66 28.66 0 001.89-1.63c1-.92 1.67-1.7 2.04-2.36.37-.66.56-1.22.57-1.67 0-.47-.07-.8-.24-.99a.72.72 0 00-.66-.28zm6.6 12.83c-.14.3-.31.48-.5.57-.22.12-.4.15-.56.09-.18-.03-.3-.15-.37-.34-.07-.2-.04-.45.08-.76l.44-1.05c.2-.55.46-1.2.77-1.95.28-.78.6-1.6.94-2.49l.98-2.56a122.67 122.67 0 011.5-3.55l-.61-.47c-.11-.12-.2-.36-.3-.73-.07-.32-.03-.75.12-1.29.16-.54.37-1.06.66-1.56.27-.52.6-.98.97-1.36.36-.38.73-.59 1.1-.62.7-.06 1.2.12 1.52.54.33.42.55.87.64 1.34.08.31.09.73.03 1.23-.05.5-.2.97-.44 1.4l.32.15c.12.04.33.05.6.03a3 3 0 00.81-.15c.17-.07.43-.11.78-.14.42-.04.78.04 1.07.24.3.18.54.42.74.72.2.29.36.61.46.98.13.34.22.66.27.95.13.62.03 1.28-.31 1.98-.34.7-.76 1.48-1.26 2.33-.3.53-.6 1.12-.9 1.77a2.9 2.9 0 00-.3 1.72c.08.31.19.57.33.76.14.18.5.25 1.07.2.42-.03.87-.22 1.34-.57.5-.36.98-.8 1.46-1.33.5-.54 1-1.12 1.46-1.74a25.55 25.55 0 002.29-3.47l.62-1.03c.11-.2.26-.36.45-.45.2-.1.37-.1.53-.05.15.06.25.2.3.43.06.22 0 .52-.19.91-.12.27-.35.69-.68 1.27a36.9 36.9 0 01-2.64 4.18 21 21 0 01-1.8 2.1c-.62.63-1.26 1.17-1.93 1.6a4 4 0 01-1.89.73 3.14 3.14 0 01-2.75-1.04c-.29-.35-.5-.73-.67-1.14a3.4 3.4 0 01-.08-2.17 20.35 20.35 0 01.9-2.22c.19-.4.36-.77.5-1.14.36-.75.64-1.4.85-1.91a3 3 0 00.3-1.34 1.19 1.19 0 00-.2-.59c-.12-.16-.3-.23-.51-.21-.15 0-.27.03-.34.06l-.18.02c-.05 0-.14.02-.26.06l-.49.04c-.32.03-.6 0-.83-.08a3.92 3.92 0 00-.65-.16l-.58 1.17-1.05 2.12c-.38.81-.8 1.66-1.24 2.55a320.11 320.11 0 01-2.16 4.48l-.52.94zM243.7 48.5c-.65 1.16-1.4 2.3-2.26 3.43a24.3 24.3 0 01-2.78 3.02c-.97.89-2 1.63-3.07 2.22-1.05.6-2.1.94-3.14 1.03a4.64 4.64 0 01-1.83-.25 4.9 4.9 0 01-1.81-1.05 6.15 6.15 0 01-1.46-2.01 7.54 7.54 0 01-.54-3.15c.01-1.02.23-2.12.66-3.28.44-1.2 1-2.3 1.7-3.3a11.78 11.78 0 012.44-2.59c.94-.7 1.9-1.1 2.9-1.2.94-.07 1.65.1 2.11.54.47.43.7 1 .71 1.7 0 .78-.17 1.5-.48 2.18-.3.68-.66 1.3-1.12 1.87-.45.56-.94 1.08-1.47 1.55-.51.47-1 .9-1.47 1.3a150.06 150.06 0 00-2.7 2.22c.08.62.24 1.13.47 1.54.24.4.52.73.84.98.32.22.67.38 1.06.47.4.06.8.08 1.2.04.85-.07 1.7-.4 2.58-1.01.87-.63 1.71-1.35 2.52-2.17a49.42 49.42 0 003.97-4.9c.15-.21.31-.34.49-.38.2-.06.34-.05.45.04.13.06.2.2.23.43.01.2-.05.44-.2.73zm-10.05-4.9c-.3.02-.65.2-1.04.54-.37.33-.73.8-1.08 1.4a11.7 11.7 0 00-1.48 4.98 28.87 28.87 0 001.88-1.63c1-.91 1.69-1.7 2.05-2.36.37-.66.56-1.21.57-1.66.01-.48-.07-.81-.24-1a.72.72 0 00-.66-.28zm18.38 5.3a56.21 56.21 0 01-3.53 5.53c-.56.75-1.1 1.36-1.6 1.83-.49.5-.9.75-1.22.78-.77.07-1.43-.24-2-.91a9.46 9.46 0 01-1.35-2.63c-.34-1.07-.6-2.21-.79-3.42a21.88 21.88 0 01-.12-5.66c.08-.61.19-1.08.33-1.42.17-.34.37-.6.6-.77a4.3 4.3 0 011.57-.62c.22-.05.42-.05.6-.02.2 0 .36.07.47.19.1.11.14.3.08.55a201.15 201.15 0 00-.6 4.26c-.05.6-.07 1.19-.07 1.74 0 .95.08 1.78.21 2.5.14.68.3 1.27.5 1.75.19.46.38.81.57 1.04.2.24.35.35.45.34.12-.01.33-.2.63-.54.31-.38.66-.86 1.03-1.45.4-.58.8-1.26 1.22-2.02.43-.76.83-1.55 1.18-2.36a3.58 3.58 0 01-.3-1.4 7.77 7.77 0 011.21-4.16c.35-.5.72-.9 1.1-1.18.4-.32.75-.48 1.08-.51.64-.06 1.05.08 1.23.41.2.31.3.64.28 1 0 .52-.18 1.26-.52 2.22-.32.93-.76 1.96-1.3 3.08l.41.11c.16.04.33.05.53.03a8.7 8.7 0 006.03-3.2c.14-.15.28-.24.43-.25a.6.6 0 01.38.07c.11.07.17.18.18.33.02.15-.04.31-.18.5a10.4 10.4 0 01-3.05 2.94 9.47 9.47 0 01-4.94 1.4c-.23 0-.47-.03-.73-.08zm22.2-3.07c-.65 1.16-1.4 2.3-2.26 3.43-.85 1.1-1.78 2.1-2.77 3.02-.98.89-2 1.63-3.08 2.22-1.05.6-2.1.94-3.14 1.03a4.64 4.64 0 01-1.82-.26 4.9 4.9 0 01-1.82-1.04 6.13 6.13 0 01-1.46-2.01 7.53 7.53 0 01-.53-3.15c0-1.03.22-2.12.65-3.29a15.6 15.6 0 011.7-3.3 11.78 11.78 0 012.44-2.58c.94-.7 1.9-1.1 2.9-1.2.94-.08 1.65.1 2.11.54.47.43.7 1 .72 1.7-.01.78-.17 1.5-.49 2.18-.3.68-.66 1.3-1.11 1.87-.45.56-.95 1.08-1.48 1.55-.51.47-1 .9-1.47 1.3l-1.47 1.21c-.47.37-.88.7-1.23 1.01.08.62.24 1.13.48 1.54.23.4.51.73.83.98.32.22.68.38 1.06.47.4.06.8.08 1.2.04.85-.07 1.71-.4 2.58-1.01.88-.63 1.71-1.35 2.52-2.17.83-.85 1.58-1.72 2.25-2.6.7-.9 1.27-1.66 1.72-2.3.15-.21.32-.34.49-.38.2-.07.34-.05.45.04.13.06.2.2.23.43.01.2-.05.44-.2.73zm-10.05-4.9c-.3.02-.64.2-1.04.53-.37.34-.73.8-1.08 1.41a11.7 11.7 0 00-1.48 4.98 28.9 28.9 0 001.89-1.63c1-.91 1.68-1.7 2.04-2.36.37-.66.56-1.21.57-1.66.01-.48-.07-.81-.23-1a.72.72 0 00-.67-.28zm6.61 12.83c-.15.28-.32.47-.51.57-.22.12-.4.14-.56.08-.18-.03-.3-.15-.37-.34-.06-.2-.04-.45.09-.76l.43-1.05c.2-.55.46-1.2.77-1.95a1109.34 1109.34 0 001.93-5.05 115.38 115.38 0 011.49-3.55c-.3-.22-.5-.38-.6-.47-.12-.12-.21-.36-.3-.73-.08-.32-.04-.74.12-1.28a7.13 7.13 0 011.62-2.93c.37-.38.74-.59 1.1-.62.7-.06 1.2.12 1.52.54.34.43.55.87.64 1.34.08.32.1.73.04 1.24-.06.5-.2.96-.44 1.39l.3.16c.14.04.34.04.61.02.4-.04.67-.08.82-.15.17-.06.42-.11.77-.14.43-.04.78.04 1.07.24.3.18.54.42.75.73.2.28.35.6.46.97.13.34.22.66.27.96.13.61.02 1.27-.32 1.98-.34.7-.76 1.48-1.26 2.32-.3.53-.6 1.12-.9 1.77-.29.65-.39 1.23-.3 1.72.08.32.2.57.33.76.14.19.5.26 1.07.2.43-.03.87-.22 1.34-.56.5-.37.98-.81 1.46-1.33a24.57 24.57 0 002.77-3.59c.4-.6.73-1.15.99-1.62l.62-1.04c.1-.2.25-.36.45-.45.19-.09.36-.1.52-.04.16.06.25.2.3.42.07.22 0 .53-.18.92l-.68 1.26c-.3.58-.68 1.22-1.15 1.94a36 36 0 01-1.5 2.23c-.55.76-1.15 1.46-1.8 2.12-.62.63-1.26 1.16-1.92 1.6-.64.42-1.27.67-1.9.72a3.14 3.14 0 01-2.75-1.03c-.28-.36-.5-.74-.67-1.15a3.4 3.4 0 01-.08-2.17 19.57 19.57 0 01.9-2.22c.2-.4.36-.77.5-1.13.36-.76.65-1.4.85-1.92.23-.54.33-1 .3-1.34a1.19 1.19 0 00-.2-.58c-.12-.17-.29-.24-.51-.22-.15.01-.26.03-.33.07l-.19.01c-.05 0-.14.03-.26.06l-.48.04c-.33.03-.6 0-.84-.07a3.9 3.9 0 00-.65-.17l-.57 1.18-1.06 2.12c-.38.8-.79 1.66-1.24 2.55a320.02 320.02 0 01-2.16 4.47l-.52.95zm25.55-15.88c.3-.27.6-.49.88-.64.3-.17.59-.3.83-.37.27-.1.54-.15.81-.15.68 0 1.1.17 1.29.53.2.36.28.95.23 1.78-.04.43-.14.98-.3 1.65a117.07 117.07 0 00-1.27 5.7 62.32 62.32 0 00-.58 4.11c-.2 1.25-.4 2.68-.6 4.3l-.64 5.13c-.23 2-.47 4.28-.72 6.86-.07.63-.31 1.01-.72 1.15a1.92 1.92 0 01-1.8-.33 7.94 7.94 0 01-.45-.41c-.16-.14-.3-.34-.43-.6.4-2.14.72-4.09 1-5.84.3-1.75.56-3.28.8-4.58.24-1.5.47-2.84.7-4.04l.2-1.56.24-1.56c-.28.55-.58 1.08-.92 1.59-.33.5-.7.95-1.12 1.33-.42.39-.88.7-1.38.91-.48.25-1 .35-1.55.33-1.36-.06-2.36-.47-3-1.24a5.16 5.16 0 01-1-3.15c-.01-.52.01-1.1.08-1.73.07-.63.15-1.24.25-1.83l.28-1.56a21.03 21.03 0 00.67-3.51c.09-.7-.06-1.24-.45-1.66.33-.25.64-.43.93-.53.32-.13.6-.23.84-.3.27-.05.55-.07.82-.07.68.04 1.09.26 1.22.64.16.4.18 1 .05 1.8a20 20 0 01-.34 1.69l-.54 2.07-.5 2c-.15.59-.22 1-.22 1.26-.13 1.14-.07 2 .19 2.61.25.58.7.84 1.38.78.32-.03.67-.2 1.04-.5.38-.34.74-.76 1.1-1.26.38-.51.74-1.08 1.09-1.71.34-.66.65-1.31.91-1.96a17.5 17.5 0 001.2-3.56c.09-.94.14-1.67.14-2.2 0-.52-.2-.98-.64-1.37zm19.83 2.59c.09-.16.2-.26.35-.3.17-.06.3-.06.41 0 .11.07.17.2.19.37.04.17 0 .41-.13.72a34.29 34.29 0 01-3.97 6.55 19.96 19.96 0 01-2.4 2.57c-.8.7-1.48 1.07-2.05 1.12a3.99 3.99 0 01-2.1-.3 4.06 4.06 0 01-1.4-1.08 4.88 4.88 0 01-1.02-3.03 88.36 88.36 0 01.36-5.78l.44-4.43c.19-1.6.39-3.13.61-4.6l-1.25.26a10.05 10.05 0 01-3.41.1 9.5 9.5 0 01-1.65-.41c-.21-.08-.31-.21-.3-.39 0-.2.07-.4.17-.58.11-.2.26-.38.45-.52.16-.17.31-.26.46-.27l1.54.02a21.52 21.52 0 004.41-.7c.22-1.21.44-2.27.67-3.17.24-.92.47-1.57.69-1.94.06-.13.22-.24.46-.34.26-.12.54-.2.84-.26.3-.07.58-.1.86-.07.27 0 .48.07.62.2.14.2.23.7.28 1.52.05.82 0 1.88-.14 3.17 1.05-.1 1.97-.11 2.78-.06a16.17 16.17 0 013.53.48l.8.2c.19.03.29.15.3.35.05.2.03.4-.05.64-.06.2-.18.4-.37.56a.81.81 0 01-.66.2c-.25 0-.54-.02-.87-.07a8.7 8.7 0 00-1.13-.09 25.63 25.63 0 00-3.63.1c-.16 0-.33.04-.53.08l-.56.05-.19 1.22c-.04.38-.12.78-.23 1.22a103.4 103.4 0 01-1.87 6.96c-.4 1.36-.87 2.82-1.38 4.37-.06 1.08.02 1.9.25 2.45.25.53.52.91.81 1.14.35.24.76.35 1.23.34.38.02.82-.15 1.31-.5.52-.36 1.04-.83 1.57-1.4.53-.58 1.05-1.2 1.56-1.87.55-.67 1.04-1.33 1.49-1.97.44-.64.83-1.21 1.16-1.72l.7-1.11zm17.1-.26c.17-.21.33-.33.5-.34.2-.04.35 0 .46.1.14.1.2.25.2.48.02.22-.06.48-.24.77-.41.69-.9 1.4-1.46 2.16-.56.72-1.18 1.44-1.84 2.15-.64.7-1.3 1.38-1.97 2.01-.67.64-1.32 1.17-1.96 1.6-.7.49-1.32.76-1.85.8-.5.05-1.02-.23-1.57-.84a2.93 2.93 0 01-.83-1.76c-.04-.68.04-1.52.23-2.54.12-.64.29-1.4.51-2.26.25-.9.42-1.76.53-2.57.13-.8.13-1.49 0-2.03-.12-.56-.46-.82-1.04-.77-.4.04-.82.21-1.26.53-.43.3-.86.7-1.29 1.2-.4.46-.8.98-1.18 1.57-.37.58-.7 1.15-.97 1.7a589.96 589.96 0 01-.99 8.08c-.14.14-.29.24-.46.3-.17.07-.33.11-.48.12-.17.02-.35.02-.52.01-.2-.03-.4-.09-.58-.17a2.26 2.26 0 01-.48-.37 1.4 1.4 0 01-.4-.6 1129.3 1129.3 0 003.12-21.5c.03-.48.06-.95.07-1.4.01-.4 0-.81-.04-1.24-.03-.42-.1-.8-.21-1.14.19-.14.39-.26.6-.36.25-.1.48-.18.7-.24.27-.1.53-.19.8-.26.27-.08.52-.12.74-.14.2-.02.39-.01.57.02.17.01.3.08.35.2.16.1.25.35.26.73.03.37.04.76.02 1.16l-.2 1.56a85.7 85.7 0 01-1.24 6.04c-.48 1.95-.9 4.02-1.25 6.23.27-.52.62-1.06 1.02-1.63.4-.56.84-1.07 1.33-1.54.5-.5 1.04-.9 1.62-1.23a4.2 4.2 0 011.86-.61c.35-.04.68 0 .99.1.33.07.62.23.86.48.27.23.5.56.65 1 .17.41.26.94.3 1.59a14.19 14.19 0 01-.7 4.42 79.4 79.4 0 01-.64 2.23l-.4 1.5c-.08.41-.03.76.17 1.04.26.38.7.44 1.33.18.65-.28 1.6-1.01 2.81-2.2.28-.27.59-.61.93-1.02.34-.4.67-.8.98-1.2l.87-1.21c.27-.38.5-.67.68-.89zm5.55-14.34c-.05.28-.17.56-.37.85-.18.27-.4.5-.66.7-.23.17-.48.3-.75.37s-.5.04-.69-.1c-.55-.35-.86-.74-.93-1.19-.06-.47.01-.91.22-1.33.22-.45.5-.82.84-1.13.35-.33.66-.53.93-.6.27-.08.5-.04.69.12.2.13.37.33.5.6.12.24.2.52.22.84.06.32.06.61 0 .87zm-4.45 8.39c.11-.16.34-.3.68-.44.34-.13.7-.23 1.06-.32.37-.1.7-.17 1-.2.32-.05.5-.07.56-.05.02.03-.02.3-.12.8-.1.51-.24 1.11-.4 1.8l-.53 2.15c-.2.72-.33 1.31-.41 1.77l-.32 1.57c-.12.56-.24 1.12-.34 1.68-.08.53-.12 1.04-.13 1.51a2 2 0 00.67 1.67c.16.09.33.12.5.1.5-.04 1.1-.36 1.8-.97.72-.62 1.43-1.33 2.13-2.15.73-.84 1.4-1.67 2-2.5.6-.85 1.05-1.53 1.33-2.03.17-.27.36-.45.55-.54.22-.1.4-.1.53 0 .15.08.24.24.26.46.05.22 0 .49-.15.8a20.8 20.8 0 01-1.54 2.65c-.68 1.01-1.42 2-2.21 2.98-.8.94-1.6 1.76-2.38 2.46-.77.7-1.41 1.07-1.93 1.14-.42.07-.85.03-1.29-.1-.4-.12-.8-.3-1.17-.55a4.56 4.56 0 01-.9-.93 2.83 2.83 0 01-.49-1.2 14.3 14.3 0 01-.22-2.53 31.13 31.13 0 01.58-6.67c.23-1.04.53-1.83.88-2.36zm19.8 13.33a3.15 3.15 0 01-1.52-.2 2.6 2.6 0 01-1.04-.74 2.82 2.82 0 01-.59-1.15 3.83 3.83 0 01-.06-1.5c.05-.36.13-.83.26-1.41.12-.61.24-1.26.35-1.95.14-.71.25-1.41.35-2.1.1-.7.16-1.34.17-1.89 0-.58-.07-1.03-.2-1.37-.13-.37-.36-.53-.68-.5-.4.03-.8.2-1.2.51-.4.29-.8.67-1.2 1.16-.4.48-.78 1.04-1.18 1.68-.37.6-.74 1.24-1.1 1.9a74.1 74.1 0 00-.37 2.29l-.26 1.75-.18 1.36-.17 1.1c-.05.26-.25.53-.6.81-.36.26-.74.48-1.15.67-.4.18-.76.29-1.06.31-.32.03-.47-.07-.44-.3.01-.15.07-.49.17-1.02.08-.54.2-1.16.33-1.87a304.7 304.7 0 01.72-4.65 437.31 437.31 0 00.5-4.06l.45-2.67c.16-.17.33-.3.5-.38.18-.12.38-.21.57-.28.2-.09.4-.16.62-.2.2-.02.4-.03.6-.02.18.01.36.05.54.1.2.04.38.1.54.22-.06.18-.12.44-.2.77-.07.3-.14.64-.2 1-.07.4-.16.82-.27 1.26.28-.48.6-.96.96-1.44.38-.5.8-.97 1.23-1.38.46-.42.96-.76 1.49-1.04.52-.3 1.07-.47 1.64-.52.47-.04.91.06 1.3.3.4.24.72.6.96 1.08.27.46.44 1.02.53 1.69.1.66.08 1.4-.07 2.22l-.27 1.68c-.08.53-.18 1.16-.32 1.9-.11.71-.27 1.5-.47 2.37-.1.56-.12 1.04-.06 1.43.09.4.35.57.8.54.44-.04.98-.37 1.6-.97.65-.6 1.29-1.33 1.92-2.16a36.5 36.5 0 003.01-4.62c.2-.34.4-.57.58-.69.2-.12.34-.14.44-.08.14.07.21.24.24.5.02.26-.05.59-.22 1-.14.37-.37.85-.7 1.46-.3.6-.66 1.24-1.1 1.93-.44.7-.92 1.4-1.43 2.12-.52.7-1.06 1.34-1.64 1.95-.57.57-1.16 1.05-1.75 1.43-.57.4-1.12.62-1.67.67zm16.79 2.96l-.29 2.28a55.07 55.07 0 01-.95 5.9 17.98 17.98 0 01-.77 2.74c-.3.83-.66 1.51-1.06 2.05-.4.53-.88.83-1.43.87a3.23 3.23 0 01-2.19-.56 6 6 0 01-1.61-1.7 8.35 8.35 0 01-1.07-2.27 10.37 10.37 0 01-.46-4.84c.12-.66.36-1.31.73-1.94.4-.64.94-1.33 1.63-2.06.68-.74 1.57-1.66 2.65-2.75l1.51-1.56c.49-.5.95-.95 1.39-1.36a108.87 108.87 0 00.4-2.63 9.05 9.05 0 01-2.15 2.4 5.47 5.47 0 01-3.02 1.17c-1.06.1-1.97-.3-2.73-1.19-.73-.91-1.18-2.3-1.34-4.16a13.62 13.62 0 011.44-6.7 9.8 9.8 0 012.16-2.86c.88-.8 1.9-1.25 3.07-1.36.55-.04 1.03.05 1.45.29.43.24.8.56 1.1.95.31.38.56.8.75 1.25.19.44.34.85.45 1.24.03-.15.06-.3.07-.45 0-.18.03-.33.07-.46.18-.87.4-1.46.67-1.79.3-.35.75-.55 1.38-.6.34-.04.63 0 .87.1.26.1.4.2.4.3a18.38 18.38 0 01-.42 1.17c-.06.16-.12.36-.17.62a38.75 38.75 0 00-.4 2.36 349.45 349.45 0 01-.75 5.21l-.4 3.12c.66-.46 1.34-1 2.04-1.64a38.03 38.03 0 003.61-3.78c.48-.59.82-1.07 1.04-1.44.17-.32.38-.55.62-.7.23-.14.44-.2.62-.16.2 0 .32.11.36.3.07.18.02.43-.15.77-.5.97-1.11 1.93-1.86 2.87a37.96 37.96 0 01-4.65 4.76 45.9 45.9 0 01-1.93 1.52 112.8 112.8 0 01-.4 2.78l-.28 1.94zm-5.34-6.93c.52-.05 1-.23 1.42-.54.45-.31.84-.66 1.18-1.04.34-.4.62-.8.84-1.2.21-.4.37-.71.48-.95.08-.23.16-.54.26-.92.11-.39.2-.76.24-1.11.04-.35.04-.67-.01-.94-.02-.27-.12-.41-.3-.42-.15-.01-.29-.1-.4-.27a6.54 6.54 0 01-.5-1.83 4.24 4.24 0 00-.8-1.85c-.33-.37-.68-.54-1.06-.5-.62.05-1.2.35-1.72.9-.5.54-.94 1.23-1.32 2.06a11.37 11.37 0 00-.93 5.34c.1 1.05.32 1.88.67 2.5.36.6 1 .85 1.95.77zm-.2 17.45c.5-.05.86-.45 1.1-1.23a21.59 21.59 0 00.92-4.4c.1-.56.21-1.2.32-1.94.14-.74.27-1.54.4-2.4.12-.84.26-1.7.4-2.56-.18.2-.37.39-.58.58l-.58.73c-.5.57-.99 1.11-1.47 1.63-.45.54-.86 1.09-1.2 1.65-.36.58-.63 1.19-.82 1.83a6.4 6.4 0 00-.15 2.2c.07.81.16 1.48.25 2 .12.52.25.92.37 1.2.15.3.3.48.46.57.19.1.38.15.58.14zm39.7-26.7c-.65 1.17-1.4 2.3-2.26 3.44-.85 1.1-1.78 2.1-2.78 3.02-.97.89-2 1.63-3.07 2.22-1.05.6-2.1.94-3.14 1.03a4.64 4.64 0 01-1.82-.26 4.9 4.9 0 01-1.82-1.04 6.15 6.15 0 01-1.46-2.01 7.53 7.53 0 01-.53-3.15c0-1.03.22-2.12.65-3.29a15.6 15.6 0 011.7-3.3 11.82 11.82 0 012.44-2.58c.94-.71 1.9-1.1 2.9-1.2.94-.08 1.65.1 2.11.53.47.44.7 1 .71 1.7 0 .78-.16 1.51-.48 2.2-.3.67-.66 1.29-1.11 1.85-.46.57-.95 1.09-1.48 1.56-.51.47-1 .9-1.47 1.3a160.69 160.69 0 00-2.7 2.22c.08.62.24 1.13.48 1.54.23.4.51.73.83.98.32.22.68.38 1.06.47.4.06.8.08 1.2.04a5.4 5.4 0 002.58-1.01c.88-.63 1.71-1.35 2.52-2.18a49.2 49.2 0 003.97-4.9c.15-.2.32-.33.49-.37.2-.07.34-.06.45.04.13.06.2.2.23.43.01.2-.05.44-.2.73zm-10.05-4.9c-.3.03-.64.2-1.04.54-.37.34-.73.8-1.08 1.41a11.7 11.7 0 00-1.48 4.98 28.66 28.66 0 001.89-1.63c1-.92 1.68-1.7 2.04-2.36.37-.66.56-1.21.57-1.66.01-.48-.07-.81-.24-1a.72.72 0 00-.66-.28zm19.2 12.86a3.15 3.15 0 01-1.52-.2 2.6 2.6 0 01-1.05-.74 2.82 2.82 0 01-.58-1.15 3.83 3.83 0 01-.06-1.5c.04-.35.13-.82.25-1.41l.36-1.95c.13-.71.25-1.4.34-2.1.11-.7.17-1.34.17-1.89 0-.57-.06-1.03-.2-1.37-.13-.36-.35-.53-.68-.5-.4.03-.8.2-1.19.51-.4.29-.8.68-1.21 1.16a18 18 0 00-1.17 1.68c-.37.61-.74 1.24-1.11 1.9a74.1 74.1 0 00-.37 2.29L406 38.8c-.05.5-.11.96-.18 1.37-.06.38-.12.75-.16 1.1-.06.26-.26.52-.6.8-.36.26-.74.48-1.15.67-.41.18-.77.3-1.06.32-.33.03-.47-.07-.44-.3 0-.15.07-.5.17-1.03.08-.53.19-1.16.32-1.87a304.7 304.7 0 01.73-4.65 683.88 683.88 0 00.5-4.06l.45-2.67a2.94 2.94 0 011.07-.66c.19-.09.4-.16.62-.2.2-.02.4-.02.6-.02.17.01.35.05.53.1.2.04.38.11.55.22a22.48 22.48 0 00-.4 1.76c-.08.41-.17.83-.28 1.27.29-.48.6-.95.97-1.44.38-.5.79-.97 1.23-1.38.46-.42.96-.76 1.48-1.03.53-.3 1.08-.47 1.65-.52.47-.04.9.06 1.3.3s.72.6.96 1.08c.26.45.44 1.01.52 1.68.11.67.09 1.4-.06 2.22l-.27 1.68-.32 1.9c-.12.72-.27 1.5-.47 2.37-.1.56-.12 1.04-.06 1.44.08.39.35.57.8.53.44-.04.98-.36 1.6-.97.65-.6 1.29-1.33 1.91-2.16a36.46 36.46 0 003.01-4.62c.2-.34.4-.57.59-.69.19-.11.33-.14.44-.07.13.06.2.23.23.5.02.25-.05.58-.21 1-.14.36-.38.84-.7 1.45-.3.6-.67 1.25-1.1 1.94-.45.69-.93 1.4-1.44 2.11-.51.7-1.06 1.35-1.63 1.95-.58.57-1.16 1.05-1.75 1.43-.57.4-1.13.62-1.67.67zm17.7-9.66c-.05.78-.1 1.52-.17 2.23-.04.7-.05 1.27-.04 1.7.03.62.18 1.05.45 1.3.27.26.56.37.86.34.35-.03.75-.24 1.22-.63.49-.4 1-.88 1.52-1.45.53-.57 1.05-1.2 1.57-1.86a75.02 75.02 0 003.15-4.37.85.85 0 01.42-.3c.18-.04.31-.03.42.04.1.06.17.2.19.4.01.2-.07.45-.24.76a31.38 31.38 0 01-4.06 6c-.56.7-1.15 1.32-1.75 1.88-.58.55-1.15 1-1.72 1.35-.54.37-1.05.58-1.52.62a1.9 1.9 0 01-1.04-.21 3.5 3.5 0 01-.89-.71 4.2 4.2 0 01-.69-1.03 3.3 3.3 0 01-.25-1.18l.03-.9a16.16 16.16 0 01-2.92 3.07 5.62 5.62 0 01-2.93 1.27 2.91 2.91 0 01-2.3-.93 5.12 5.12 0 01-.88-1.5 6.8 6.8 0 01-.43-2.33 13.3 13.3 0 012.07-7.69 9.2 9.2 0 012.37-2.5 5.7 5.7 0 012.83-1.11c.43-.04.82.04 1.19.23.36.17.69.42.96.75a5.9 5.9 0 011.16 2.11c.12-.74.22-1.46.3-2.17l.28-2.01a233 233 0 00.52-3.05l.58-3.25c.22-1.22.47-2.5.75-3.86a3.31 3.31 0 011.29-.79 2.01 2.01 0 011.3-.11c.2.03.38.18.53.44.17.24.3.61.4 1.13a16.84 16.84 0 01-.1 5.76 32.9 32.9 0 01-.95 4.14 47.22 47.22 0 01-3.47 8.42zm-2.15.67a39.3 39.3 0 01.34-2.92l-.14.09a.44.44 0 01-.1.08c-.26.15-.45.17-.56.05a1.23 1.23 0 01-.2-.66l-.12-.78c-.05-.4-.16-.78-.32-1.17a2.88 2.88 0 00-.58-1.04c-.25-.3-.58-.44-.98-.4-.57.05-1.13.4-1.67 1.05a13.84 13.84 0 00-2.56 5.03 9.3 9.3 0 00-.38 2.59c.06 1.2.28 2.04.67 2.53.4.5.9.71 1.49.66.44-.04.92-.26 1.4-.65.52-.4 1-.86 1.46-1.4a40.9 40.9 0 002.25-3.05zm14.53 4.14a1 1 0 00.57.1c.25-.02.48-.09.7-.2.23-.13.44-.29.63-.48.2-.2.35-.43.42-.71.08-.28.04-.67-.1-1.16a26.6 26.6 0 00-1.45-3.33 30.84 30.84 0 01-1.25-2.6l-.36-.75a3.5 3.5 0 00-.24-.54c-.1.2-.3.55-.58 1.03a90.73 90.73 0 01-1.77 2.93l-.6.88c-.18.24-.37.4-.56.46a.56.56 0 01-.46-.07.8.8 0 01-.27-.46c-.02-.23.06-.5.23-.81l.6-1 .77-1.41c.26-.5.5-.94.71-1.3.22-.4.33-.64.35-.71.04-.2-.06-.46-.29-.77-.2-.3-.26-.68-.17-1.1.07-.37.26-.78.56-1.26.31-.5.68-.96 1.12-1.38.44-.41.9-.73 1.39-.94.48-.25.92-.28 1.34-.12.34.17.62.37.84.6.22.2.31.44.28.7a6.39 6.39 0 01-.56 1.28c-.17.29-.43.68-.76 1.16.12.56.27 1.07.43 1.54l.52 1.19c.19.4.38.78.59 1.11l.83 1.32a18.2 18.2 0 011.39 2.58c.16.39.22.72.2 1-.04.43-.22.96-.54 1.59-.3.62-.7 1.25-1.19 1.87a7.99 7.99 0 01-1.7 1.57c-.64.46-1.33.72-2.07.79a2.78 2.78 0 01-1.57-.35A5.9 5.9 0 01441 38.7a6.47 6.47 0 01-.86-1.24c-.19-.4-.23-.73-.13-.96.13-.31.24-.56.35-.75.11-.18.28-.4.51-.64l.35-.3c.12-.08.28-.17.5-.26l.76-.33a19.28 19.28 0 001.4 2.73c.18.26.33.43.47.52zm9.92-2.44c.64-.16 1.16-.14 1.55.05.41.16.62.53.62 1.1 0 .33-.1.66-.33.98-.2.29-.46.56-.79.82a4.13 4.13 0 01-1.95.88 2.5 2.5 0 01-1.33-.22c-.42-.19-.63-.53-.62-1.04 0-.32.08-.62.26-.88.15-.3.37-.55.65-.77.25-.23.55-.41.88-.57.37-.16.72-.27 1.06-.35zm8.17-.72c.63-.15 1.15-.14 1.54.05.42.17.63.54.63 1.11 0 .33-.11.65-.33.97-.2.3-.47.57-.8.82a4.13 4.13 0 01-1.95.89 2.5 2.5 0 01-1.33-.22c-.42-.2-.62-.54-.62-1.04 0-.32.09-.62.26-.89.15-.28.37-.54.65-.77.26-.22.55-.4.89-.56.36-.16.71-.28 1.06-.36zm8.16-.71c.64-.16 1.15-.14 1.55.05.41.16.62.53.62 1.11 0 .33-.1.65-.33.97-.2.3-.46.56-.8.82a4.11 4.11 0 01-1.94.88 2.5 2.5 0 01-1.34-.22c-.41-.19-.62-.53-.61-1.03 0-.33.08-.62.26-.9.15-.28.36-.54.64-.76.26-.22.56-.41.9-.57a6.2 6.2 0 011.05-.35z" fill="#9BA2C2"/><defs><linearGradient id="paint0_linear" x1="461" y1="38" x2="-1" y2="77" gradientUnits="userSpaceOnUse"><stop stop-color="#FF5370"/><stop offset="1" stop-color="#FF5370" stop-opacity="0"/></linearGradient></defs></svg>