<svg width="24" height="24" viewBox="0 0 24 24" fill="none"
  xmlns="http://www.w3.org/2000/svg">
  <path d="M21 6L16 6" stroke="black" stroke-width="2" stroke-linecap="round" stroke-linejoin="round"/>
  <path d="M1 18H5.29819e-07C5.29819e-07 18.5523 0.447716 19 1 19L1 18ZM1 10.4545C0.447715 10.4545 0 10.9023 0 11.4545C0 12.0068 0.447715 12.4545 1 12.4545V10.4545ZM1 6V5C0.447716 5 5.29819e-07 5.44772 5.29819e-07 6H1ZM8.88889 8.72727C8.88889 9.664 8.11033 10.4545 7.11111 10.4545V12.4545C9.18014 12.4545 10.8889 10.803 10.8889 8.72727H8.88889ZM7.11111 7C8.11033 7 8.88889 7.79055 8.88889 8.72727H10.8889C10.8889 6.65154 9.18014 5 7.11111 5V7ZM10 14.7273C10 15.9652 8.97271 17 7.66667 17V19C10.0425 19 12 17.1043 12 14.7273H10ZM7.66667 12.4545C8.97271 12.4545 10 13.4893 10 14.7273H12C12 12.3503 10.0425 10.4545 7.66667 10.4545V12.4545ZM7.66667 17H1V19H7.66667V17ZM7.66667 10.4545H1V12.4545H7.66667V10.4545ZM7.11111 5H1V7H7.11111V5ZM2 18V6H5.29819e-07V18H2Z" fill="black"/>
  <path d="M14 13.5C14 15.9853 16.0147 18 18.5 18C19.6413 18 20.6833 17.5752 21.4766 16.875M14 13.5C14 11.0147 16.0147 9 18.5 9C20.9853 9 23 11.0147 23 13.5H14Z" stroke="black" stroke-width="2" stroke-linecap="round" stroke-linejoin="round"/>
</svg>
